<svg width="20" height="20" viewBox="0 0 20 20" fill="none" xmlns="http://www.w3.org/2000/svg">
<path d="M15.8333 16.6667H4.16667C3.94565 16.6667 3.73369 16.7545 3.57741 16.9107C3.42113 17.067 3.33333 17.279 3.33333 17.5C3.33333 17.721 3.42113 17.933 3.57741 18.0893C3.73369 18.2455 3.94565 18.3333 4.16667 18.3333H15.8333C16.0543 18.3333 16.2663 18.2455 16.4226 18.0893C16.5789 17.933 16.6667 17.721 16.6667 17.5C16.6667 17.279 16.5789 17.067 16.4226 16.9107C16.2663 16.7545 16.0543 16.6667 15.8333 16.6667ZM9.40833 14.7583C9.48758 14.8342 9.58104 14.8937 9.68333 14.9333C9.78308 14.9774 9.89094 15.0002 10 15.0002C10.1091 15.0002 10.2169 14.9774 10.3167 14.9333C10.419 14.8937 10.5124 14.8342 10.5917 14.7583L13.925 11.425C14.0819 11.2681 14.1701 11.0553 14.1701 10.8333C14.1701 10.6114 14.0819 10.3986 13.925 10.2417C13.7681 10.0848 13.5552 9.9966 13.3333 9.9966C13.1114 9.9966 12.8986 10.0848 12.7417 10.2417L10.8333 12.1583V2.50001C10.8333 2.27899 10.7455 2.06703 10.5893 1.91075C10.433 1.75447 10.221 1.66667 10 1.66667C9.77898 1.66667 9.56702 1.75447 9.41074 1.91075C9.25446 2.06703 9.16667 2.27899 9.16667 2.50001V12.1583L7.25833 10.2417C7.18063 10.164 7.08839 10.1023 6.98687 10.0603C6.88536 10.0182 6.77655 9.9966 6.66667 9.9966C6.55678 9.9966 6.44798 10.0182 6.34646 10.0603C6.24494 10.1023 6.1527 10.164 6.075 10.2417C5.9973 10.3194 5.93567 10.4116 5.89362 10.5131C5.85157 10.6146 5.82992 10.7235 5.82992 10.8333C5.82992 10.9432 5.85157 11.052 5.89362 11.1535C5.93567 11.2551 5.9973 11.3473 6.075 11.425L9.40833 14.7583Z" fill="#171F26"/>
</svg>
